Another Fine Release Brought to you from - IMAGiNE


********************************************************************************************************************
Sunshine Barry And The Disco Worms 2008 DVDRiP XViD - IMAGiNE
********************************************************************************************************************

Ripper ...........: IMAGiNE IMDB Rating.......:5.1/10
Video Codec.......: XVID Release Date......:18/07/10
Audio Codec.......: PCM Theatre Date......:07/11/09
Audio Bitrate.....:1536 Runtime.......:1h 15mn
Subtitles.........:NIL Language..........:ENGLISH
Resolution...... 688 x 272 IMDb URL..........:http://www.imdb.com/title/tt1087841/


DETAILS:

Video
ID : 0
Format : MPEG-4 Visual
Format profile : Advanced Simple@L5
Format settings, BVOP : Yes
Format settings, QPel : No
Format settings, GMC : No warppoints
Format settings, Matrix : Default (MPEG)
Muxing mode : Packed bitstream
Codec ID : XVID
Codec ID/Hint : XviD
Duration : 1h 15mn
Bit rate : 1 367 Kbps
Width : 688 pixels
Height : 272 pixels
Display aspect ratio : 2.529
Frame rate : 25.000 fps
Resolution : 24 bits
Colorimetry : 4:2:0
Scan type : Progressive
Bits/(Pixel*Frame) : 0.292
Stream size : 742 MiB (47%)
Writing library : XviD 1.2.1 (UTC 2008-12-04)

Audio
Format : PCM
Format settings, Endianness : Little
Format settings, Sign : Unsigned
Codec ID : 1
Codec ID/Hint : Microsoft
Duration : 1h 15mn
Bit rate mode : Constant
Bit rate : 1 536 Kbps
Channel(s) : 2 channels
Sampling rate : 48.0 KHz
Resolution : 16 bits
Stream size : 834 MiB (53%)
Interleave, duration : 40 ms (1.00 video frame)
Interleave, preload duration : 500 ms



NOTES:

IMAGiNE bringing you another release.....Sunshine Barry And The Disco Worms

First thanks to whoever released the dvd 9 on UG...many thanks
Sourced used was the dvd9 .....the quality was nice both video and audio,so only needed to do a simple script to crop,resize,sharpen etc...
The dvd9 had two audio track but the only english track was PCM audio so we've opted to keep the original audio track on this encode,hence
the reason for a larger file for this release....the audio alone is around 830MB so ....
Anyway we wasn't going to release this due to the date it was made,but after a quick look on a few places we couldn't see a release so ...

Anyway one for the kids,enjoy